<svg width="150" height="48" viewBox="0 0 150 48" fill="none" xmlns="http://www.w3.org/2000/svg">
  <!-- Logo Mark -->
  <path d="M20 8L28 20L36 8L44 20L36 32L28 20L20 32L12 20L20 8Z" fill="#DAFF47"/>
  <!-- Text -->
  <path d="M60.9 30L57.1 18.3L53.3 30H50.2L45 14H48.4L51.7 25.5L55.5 14H58.8L62.6 25.5L65.9 14H69.3L64.1 30H60.9Z" fill="#DAFF47"/>
  <path d="M75.2 30.3C73.7 30.3 72.4 30 71.3 29.3C70.2 28.6 69.3 27.7 68.7 26.5C68.1 25.3 67.8 24 67.8 22.5C67.8 21 68.1 19.7 68.7 18.5C69.3 17.3 70.2 16.4 71.3 15.7C72.4 15 73.7 14.7 75.2 14.7C76.7 14.7 78 15 79.1 15.7C80.2 16.4 81.1 17.3 81.7 18.5C82.3 19.7 82.6 21 82.6 22.5C82.6 24 82.3 25.3 81.7 26.5C81.1 27.7 80.2 28.6 79.1 29.3C78 30 76.7 30.3 75.2 30.3ZM75.2 27.3C76.1 27.3 76.9 27.1 77.6 26.6C78.3 26.1 78.8 25.5 79.1 24.7C79.5 23.9 79.6 23.2 79.6 22.5C79.6 21.8 79.5 21.1 79.1 20.3C78.8 19.5 78.3 18.9 77.6 18.4C76.9 17.9 76.1 17.7 75.2 17.7C74.3 17.7 73.5 17.9 72.8 18.4C72.1 18.9 71.6 19.5 71.3 20.3C71 21.1 70.8 21.8 70.8 22.5C70.8 23.2 71 23.9 71.3 24.7C71.6 25.5 72.1 26.1 72.8 26.6C73.5 27.1 74.3 27.3 75.2 27.3Z" fill="#DAFF47"/>
  <path d="M92.2 14.7C93.3 14.7 94.3 14.9 95.2 15.4C96.1 15.9 96.8 16.6 97.3 17.5C97.8 18.4 98.1 19.4 98.1 20.5V30H95.1V20.9C95.1 19.6 94.8 18.6 94.1 17.9C93.4 17.2 92.5 16.8 91.3 16.8C90.1 16.8 89.2 17.2 88.5 17.9C87.8 18.6 87.5 19.6 87.5 20.9V30H84.5V10H87.5V16.6C88 16 88.6 15.5 89.4 15.1C90.2 14.8 91.1 14.7 92.2 14.7Z" fill="#DAFF47"/>
  <path d="M101.5 10H104.5V30H101.5V10Z" fill="#DAFF47"/>
  <path d="M108.2 10H111.2V30H108.2V10Z" fill="#DAFF47"/>
  <path d="M123.6 14.7C125.3 14.7 126.7 15.2 127.8 16.3C128.9 17.4 129.4 18.9 129.4 20.8V30H126.4V21.1C126.4 19.8 126.1 18.8 125.4 18.1C124.7 17.4 123.8 17 122.7 17C121.5 17 120.5 17.4 119.8 18.1C119.1 18.8 118.7 19.8 118.7 21.1V30H115.7V15H118.7V17C119.2 16.3 119.9 15.8 120.7 15.4C121.5 14.9 122.5 14.7 123.6 14.7Z" fill="#DAFF47"/>
</svg> 